<svg width="48" height="48" viewBox="0 0 48 48" fill="none" xmlns="http://www.w3.org/2000/svg">
<path d="M24.5701 16.9322C21.2205 12.6672 18.4194 11.0419 15.0669 11.0419C8.23218 11.0419 2.99551 19.9365 2.99551 29.351C2.99551 35.2424 5.84562 38.9581 10.6196 38.9581C14.0555 38.9581 16.5266 37.3384 20.9195 29.6592C20.9195 29.6592 22.7508 26.4254 24.0107 24.1977C24.452 24.9104 24.916 25.6772 25.4054 26.5016L27.4656 29.9671C31.4783 36.6823 33.7144 38.9581 37.7656 38.9581C42.4164 38.9581 45.0045 35.1916 45.0045 29.1779C45.0045 19.3204 39.6499 11.0419 33.1449 11.0419C29.7003 11.0419 27.0078 13.6364 24.5701 16.9322ZM31.0121 26.8771L28.549 22.7692C27.8827 21.6852 27.2439 20.6889 26.6276 19.7757C28.8472 16.3493 30.6785 14.6422 32.8562 14.6422C37.3806 14.6422 41.0002 21.3036 41.0002 29.4858C41.0002 32.6046 39.9785 34.4144 37.8619 34.4144C35.8332 34.4144 34.8639 33.0747 31.0121 26.8771ZM7.53902 29.428C7.53902 22.5933 10.9467 15.6048 15.0091 15.6048C17.2089 15.6048 19.0472 16.8752 21.8631 20.9063C19.1893 25.0075 17.5696 27.5797 17.5696 27.5797C14.008 33.1629 12.7758 34.4144 10.7929 34.4144C8.75198 34.4144 7.53902 32.6228 7.53902 29.428Z" fill="white"/>
</svg>
