<?xml version="1.0" standalone="no"?>
<!DOCTYPE svg PUBLIC "-//W3C//DTD SVG 20010904//EN"
 "http://www.w3.org/TR/2001/REC-SVG-20010904/DTD/svg10.dtd">
<svg version="1.0" xmlns="http://www.w3.org/2000/svg"
 width="97.000000pt" height="96.000000pt" viewBox="0 0 97.000000 96.000000"
 preserveAspectRatio="xMidYMid meet">

<g transform="translate(0.000000,96.000000) scale(0.100000,-0.100000)"
fill="#000000" stroke="none">
<path d="M0 480 l0 -480 485 0 485 0 0 480 0 480 -485 0 -485 0 0 -480z m621
408 c69 -32 125 -88 158 -158 37 -79 37 -183 -1 -260 -15 -30 -34 -64 -42 -75
-12 -18 -10 -37 20 -169 25 -109 31 -153 23 -167 -13 -25 -21 -24 -93 11 -125
62 -248 61 -374 -1 -62 -30 -88 -32 -97 -7 -3 7 8 78 24 158 l30 145 -20 25
c-105 132 -99 317 15 432 94 96 236 122 357 66z"/>
<path d="M383 815 c-120 -60 -167 -202 -108 -322 63 -127 221 -171 341 -97
105 64 144 198 90 308 -59 121 -203 170 -323 111z"/>
<path d="M336 311 c-6 -11 -28 -142 -25 -146 2 -2 29 3 59 11 70 18 190 18
260 0 30 -8 56 -13 58 -11 3 3 -28 148 -33 153 -1 2 -30 -6 -64 -18 -74 -25
-130 -25 -199 -1 -29 10 -54 15 -56 12z"/>
</g>
</svg>
