<svg width="173" height="156" viewBox="0 0 173 156" fill="none" xmlns="http://www.w3.org/2000/svg">
<path d="M50.1762 0.677403L64.3325 12.9143C49.4564 16.7533 42.7381 28.0304 41.0586 30.4298C39.8589 18.1929 42.9781 5.23624 44.4177 2.11703C45.5694 -0.378327 48.7366 0.117546 50.1762 0.677403Z" fill="url(#paint0_linear_839_472)"/>
<path d="M123.284 0.634233L109.367 13.1424C124.315 16.6932 131.25 27.8384 132.975 30.2049C133.938 17.9471 130.569 5.05312 129.07 1.96232C127.87 -0.510321 124.713 0.0466617 123.284 0.634233Z" fill="url(#paint1_linear_839_472)"/>
<path d="M142.523 92.3357C147.082 83.458 146.602 79.8589 147.082 73.1406H151.161C151.353 73.1406 150.761 82.5782 150.441 87.297C150.057 90.3682 147.242 95.9348 145.882 98.3342C146.602 99.054 153.56 97.8543 156.439 97.3744C158.743 96.9905 160.758 93.8553 161.478 92.3357C162.438 91.7599 162.838 88.7366 162.918 87.297H166.997C166.997 90.1763 165.717 95.215 165.077 97.3744C163.925 100.446 159.479 103.133 157.399 104.093C154.04 106.492 144.817 104.839 142.283 104.333C139.884 103.853 131.326 102.413 129.326 102.893C121.169 104.851 110.131 106.972 104.613 109.851C98.2612 113.165 96.9349 118.249 95.9751 121.128C95.9751 126.807 95.7351 140.803 96.215 144.402C97.4147 148.961 101.014 149.921 103.173 149.921C104.994 149.921 107.732 148.801 108.692 148.002C111.102 145.993 110.851 140.563 111.811 138.884C112.908 136.964 115.41 138.884 115.41 140.563C115.17 146.322 112.858 151.201 111.102 152.56C105.093 156.639 102.213 156.399 97.6651 155.2C91.8961 152.8 89.9071 146.402 89.7472 143.203C89.8271 127.767 89.4592 95.5029 89.2673 89.9363C89.0753 84.3698 91.5867 80.2588 92.8663 78.8992C95.3457 78.7392 101.35 78.6112 104.613 78.4193C98.2785 80.9146 95.8256 88.1768 95.5057 91.6159V108.891C95.6976 108.124 100.294 104.413 103.173 102.893C112.371 99.9338 129.806 94.975 133.645 96.4147C136.701 97.5606 140.547 96.1836 142.523 92.3357Z" fill="url(#paint2_linear_839_472)"/>
<path d="M30.2773 92.3357C25.7185 83.458 26.1983 79.8589 25.7185 73.1406H21.6396C21.4476 73.1406 22.0395 82.5782 22.3594 87.297C22.7433 90.3682 25.5586 95.9348 26.9182 98.3342C26.1984 99.054 19.2402 97.8543 16.361 97.3744C14.0576 96.9905 12.0421 93.8553 11.3223 92.3357C10.3625 91.7599 9.96263 88.7366 9.88265 87.297H5.80371C5.80371 90.1763 7.08338 95.215 7.72321 97.3744C8.87491 100.446 13.3217 103.133 15.4012 104.093C18.7603 106.492 27.9832 104.839 30.5172 104.333C32.9166 103.853 41.4744 102.413 43.4739 102.893C51.6317 104.851 62.6688 106.972 68.1874 109.851C74.5391 113.165 75.8654 118.249 76.8251 121.128C76.8251 126.807 77.0651 140.803 76.5853 144.402C75.3856 148.961 71.7865 149.921 69.6271 149.921C67.8061 149.921 65.0683 148.801 64.1085 148.002C61.6987 145.993 61.9491 140.563 60.9893 138.884C59.8925 136.964 57.3903 138.884 57.3903 140.563C57.6302 146.322 59.9426 151.201 61.6987 152.56C67.7076 156.639 70.5868 156.399 75.1352 155.2C80.9042 152.8 82.8932 146.402 83.0531 143.203C82.9732 127.767 83.3411 95.5029 83.533 89.9363C83.725 84.3698 81.2136 80.2588 79.9339 78.8992C77.4546 78.7392 71.4506 78.6112 68.1874 78.4193C74.5218 80.9146 76.9747 88.1768 77.2946 91.6159V108.891C77.1027 108.124 72.5063 104.413 69.627 102.893C60.4294 99.9338 42.994 94.975 39.155 96.4147C36.0993 97.5606 32.2532 96.1836 30.2773 92.3357Z" fill="url(#paint3_linear_839_472)"/>
<path d="M136.285 41.4693C132.686 14.1162 103.893 8.59766 85.8979 10.0373C83.0186 10.0373 41.9893 6.91808 37.6704 41.4693C34.5512 77.2201 61.4242 79.8595 85.8979 78.6598C111.811 80.5793 140.364 76.5003 136.285 41.4693Z" fill="url(#paint4_linear_839_472)"/>
<path d="M83.8402 61.6236V57.3047L86.2396 58.5044V61.6236C86.2396 62.8233 85.5509 64.295 82.6405 64.7428C79.5214 65.2227 80.2412 61.3836 81.2009 61.6236C82.3933 61.9217 83.6003 62.3434 83.8402 61.6236Z" fill="#FDEBA3"/>
<path d="M90.4562 61.6236V57.3047L88.0568 58.5044V61.6236C88.0568 62.8233 88.7455 64.295 91.6558 64.7428C94.775 65.2227 94.0552 61.3836 93.0955 61.6236C91.9031 61.9217 90.6961 62.3434 90.4562 61.6236Z" fill="#FDEBA3"/>
<path d="M71.5712 60.148C62.6236 53.4635 56.1525 67.8122 42.9488 64.9806" stroke="#FD8D85" stroke-width="1.9195" stroke-linecap="round"/>
<path d="M102.324 60.148C111.271 53.4635 117.742 67.8122 130.946 64.9806" stroke="#FD8D85" stroke-width="1.9195" stroke-linecap="round"/>
<path d="M70.5415 64.7422C63.8233 63.5425 57.105 67.6215 57.105 67.6215" stroke="#FD8D85" stroke-width="1.9195" stroke-linecap="round"/>
<path d="M103.833 64.7422C110.552 63.5425 117.27 67.6215 117.27 67.6215" stroke="#FD8D85" stroke-width="1.9195" stroke-linecap="round"/>
<path d="M58.7847 56.3438C55.6655 54.6642 45.1082 54.1843 41.5092 57.5399" stroke="#FD8D85" stroke-width="1.9195" stroke-linecap="round"/>
<path d="M115.59 56.3438C118.71 54.6642 129.267 54.1843 132.866 57.5399" stroke="#FD8D85" stroke-width="1.9195" stroke-linecap="round"/>
<ellipse cx="64.5435" cy="44.8253" rx="8.63775" ry="8.63779" fill="#FFF7A7"/>
<ellipse cx="109.652" cy="44.8253" rx="8.63775" ry="8.63779" fill="#FFF7A7"/>
<path d="M129.326 90.1759C133.677 86.188 127.763 83.9375 125.487 83.9375C121.888 83.9375 115.946 88.7216 116.61 91.3756C117.569 95.2146 123.568 95.4546 129.326 90.1759Z" fill="url(#paint5_linear_839_472)"/>
<path d="M153.32 58.9852C150.28 56.4815 146.602 57.5456 144.442 58.9852C139.404 62.5843 142.763 70.8862 144.442 72.9017C145.642 74.3413 153.32 76.5008 155.24 70.7422C157.159 64.9837 156.36 61.489 153.32 58.9852Z" fill="url(#paint6_linear_839_472)"/>
<path d="M170.596 74.3386C166.757 70.6915 162.198 73.3788 160.998 74.8185C159.799 75.7782 157.879 83.6962 160.998 87.0553C164.117 90.4145 168.196 87.7752 169.636 87.0553C171.076 86.3355 175.394 78.8974 170.596 74.3386Z" fill="url(#paint7_linear_839_472)"/>
<path d="M122.37 134.285C119.249 137.443 116.85 137.923 114.622 135.967C112.317 133.844 113.237 130.742 115.664 128.107C118.115 125.446 120.929 124.486 123.412 126.425C125.967 129.045 125.008 131.616 122.37 134.285Z" fill="url(#paint8_linear_839_472)"/>
<path d="M145.642 115.612C145.882 118.732 143.723 120.651 138.684 120.171C134.841 120.171 132.206 118.971 131.726 115.612C131.006 112.493 134.841 110.094 138.684 110.094C142.527 110.094 145.882 112.973 145.642 115.612Z" fill="url(#paint9_linear_839_472)"/>
<path d="M43.4733 90.1759C39.1229 86.188 45.0361 83.9375 47.3123 83.9375C50.9114 83.9375 56.8535 88.7216 56.19 91.3756C55.2303 95.2146 49.2318 95.4546 43.4733 90.1759Z" fill="url(#paint10_linear_839_472)"/>
<path d="M19.4797 58.9852C22.5199 56.4815 26.1979 57.5456 28.3574 58.9852C33.396 62.5843 30.0369 70.8862 28.3574 72.9017C27.1577 74.3413 19.4797 76.5008 17.5602 70.7422C15.6407 64.9837 16.4394 61.489 19.4797 58.9852Z" fill="url(#paint11_linear_839_472)"/>
<path d="M2.2041 74.3386C6.0431 70.6915 10.6019 73.3788 11.8016 74.8185C13.0013 75.7782 14.9208 83.6962 11.8016 87.0553C8.68242 90.4145 4.60348 87.7752 3.16385 87.0553C1.72423 86.3355 -2.59465 78.8974 2.2041 74.3386Z" fill="url(#paint12_linear_839_472)"/>
<path d="M50.4295 134.285C53.5505 137.443 55.9499 137.923 58.1776 135.967C60.4823 133.844 59.5628 130.742 57.1354 128.107C54.6841 125.446 51.871 124.486 49.3873 126.425C46.8323 129.045 47.792 131.616 50.4295 134.285Z" fill="url(#paint13_linear_839_472)"/>
<path d="M27.1575 115.612C26.9176 118.732 29.077 120.651 34.1157 120.171C37.9586 120.171 40.594 118.971 41.0739 115.612C41.7937 112.493 37.9586 110.094 34.1157 110.094C30.2728 110.094 26.9176 112.973 27.1575 115.612Z" fill="url(#paint14_linear_839_472)"/>
<path d="M88.3221 59.1692C87.6118 59.7576 86.5834 59.7576 85.8731 59.1692L81.6409 55.6633C80.2561 54.5163 81.0673 52.2656 82.8654 52.2656H91.3299C93.128 52.2656 93.9391 54.5163 92.5544 55.6633L88.3221 59.1692Z" fill="#FB9895"/>
<defs>
<linearGradient id="paint0_linear_839_472" x1="53.1777" y1="-8.06861" x2="34.1265" y2="-4.04549" gradientUnits="userSpaceOnUse">
<stop stop-color="#E4A080"/>
<stop offset="0.479167" stop-color="#F08A6E"/>
<stop offset="1" stop-color="#FD7760"/>
</linearGradient>
<linearGradient id="paint1_linear_839_472" x1="120.114" y1="-8.05215" x2="139.24" y2="-4.39792" gradientUnits="userSpaceOnUse">
<stop stop-color="#E4A080"/>
<stop offset="0.479167" stop-color="#F08A6E"/>
<stop offset="1" stop-color="#FD7760"/>
</linearGradient>
<linearGradient id="paint2_linear_839_472" x1="155.48" y1="81.7784" x2="95.4949" y2="142.962" gradientUnits="userSpaceOnUse">
<stop stop-color="#546997"/>
<stop offset="0.333333" stop-color="#284878"/>
</linearGradient>
<linearGradient id="paint3_linear_839_472" x1="17.3207" y1="81.7784" x2="77.3054" y2="142.962" gradientUnits="userSpaceOnUse">
<stop stop-color="#546997"/>
<stop offset="0.333333" stop-color="#284878"/>
</linearGradient>
<linearGradient id="paint4_linear_839_472" x1="30.7122" y1="20.5946" x2="129.567" y2="44.3483" gradientUnits="userSpaceOnUse">
<stop offset="0.119792" stop-color="#7EACB2"/>
<stop offset="0.411458" stop-color="#3A4C72"/>
<stop offset="0.671875" stop-color="#1F205A"/>
</linearGradient>
<linearGradient id="paint5_linear_839_472" x1="117.089" y1="90.8957" x2="130.046" y2="86.097" gradientUnits="userSpaceOnUse">
<stop stop-color="#FFE17C"/>
<stop offset="1" stop-color="#FFC02C"/>
</linearGradient>
<linearGradient id="paint6_linear_839_472" x1="149.03" y1="57.4805" x2="149.03" y2="74.5213" gradientUnits="userSpaceOnUse">
<stop stop-color="#EEDEAE"/>
<stop offset="1" stop-color="#FFC129"/>
</linearGradient>
<linearGradient id="paint7_linear_839_472" x1="166.053" y1="72.5078" x2="166.053" y2="88.7215" gradientUnits="userSpaceOnUse">
<stop stop-color="#8ADCFF"/>
<stop offset="1" stop-color="#287DFF"/>
</linearGradient>
<linearGradient id="paint8_linear_839_472" x1="123.416" y1="126.428" x2="114.626" y2="135.971" gradientUnits="userSpaceOnUse">
<stop stop-color="#E07CEE"/>
<stop offset="1" stop-color="#C13DFF"/>
</linearGradient>
<linearGradient id="paint9_linear_839_472" x1="144.922" y1="115.372" x2="131.726" y2="115.372" gradientUnits="userSpaceOnUse">
<stop stop-color="#FE6650"/>
<stop offset="1" stop-color="#FFAC7C"/>
</linearGradient>
<linearGradient id="paint10_linear_839_472" x1="55.7101" y1="90.8957" x2="42.7535" y2="86.097" gradientUnits="userSpaceOnUse">
<stop stop-color="#FFE17C"/>
<stop offset="1" stop-color="#FFC02C"/>
</linearGradient>
<linearGradient id="paint11_linear_839_472" x1="23.7701" y1="57.4805" x2="23.7701" y2="74.5213" gradientUnits="userSpaceOnUse">
<stop stop-color="#EEDEAE"/>
<stop offset="1" stop-color="#FFC129"/>
</linearGradient>
<linearGradient id="paint12_linear_839_472" x1="6.74722" y1="72.5078" x2="6.74722" y2="88.7215" gradientUnits="userSpaceOnUse">
<stop stop-color="#8ADCFF"/>
<stop offset="1" stop-color="#287DFF"/>
</linearGradient>
<linearGradient id="paint13_linear_839_472" x1="49.3833" y1="126.428" x2="58.1737" y2="135.971" gradientUnits="userSpaceOnUse">
<stop stop-color="#E07CEE"/>
<stop offset="1" stop-color="#C13DFF"/>
</linearGradient>
<linearGradient id="paint14_linear_839_472" x1="27.8774" y1="115.372" x2="41.0739" y2="115.372" gradientUnits="userSpaceOnUse">
<stop stop-color="#FE6650"/>
<stop offset="1" stop-color="#FFAC7C"/>
</linearGradient>
</defs>
</svg>
