<?xml version="1.0" standalone="no"?>
<!DOCTYPE svg PUBLIC "-//W3C//DTD SVG 20010904//EN"
 "http://www.w3.org/TR/2001/REC-SVG-20010904/DTD/svg10.dtd">
<svg version="1.0" xmlns="http://www.w3.org/2000/svg"
 width="96.000000pt" height="96.000000pt" viewBox="0 0 96.000000 96.000000"
 preserveAspectRatio="xMidYMid meet">

<g transform="translate(0.000000,96.000000) scale(0.100000,-0.100000)"
fill="#000000" stroke="none">
<path d="M0 480 l0 -480 480 0 480 0 0 480 0 480 -480 0 -480 0 0 -480z m585
425 c84 -22 147 -60 210 -126 169 -177 163 -444 -14 -613 -174 -165 -428 -165
-602 0 -178 170 -183 436 -13 615 112 117 268 163 419 124z"/>
<path d="M371 826 c-104 -34 -194 -124 -232 -231 -32 -91 -20 -221 26 -291
l16 -25 34 30 c50 43 91 51 273 51 176 0 213 -8 264 -57 l26 -25 15 23 c56 87
61 234 13 333 -35 72 -101 138 -174 172 -70 33 -191 42 -261 20z m179 -128
c48 -25 90 -89 90 -138 0 -14 -10 -46 -22 -70 -25 -48 -89 -90 -138 -90 -49 0
-113 42 -137 90 -29 56 -29 84 0 140 24 48 88 90 137 90 14 0 46 -10 70 -22z"/>
<path d="M425 615 c-16 -15 -25 -36 -25 -55 0 -19 9 -40 25 -55 15 -16 36 -25
55 -25 70 0 105 86 55 135 -15 16 -36 25 -55 25 -19 0 -40 -9 -55 -25z"/>
<path d="M268 250 c-29 -30 -30 -31 -13 -50 10 -11 43 -32 74 -47 49 -25 68
-28 151 -28 83 0 102 3 151 27 31 16 64 37 74 48 17 19 16 20 -13 50 l-30 30
-182 0 -182 0 -30 -30z"/>
</g>
</svg>
